<svg fill="none" xmlns="http://www.w3.org/2000/svg" viewBox="0 0 64 64">
	<title>Instagram</title>
  <path d="M46.239 14.56a3.2 3.2 0 1 0 0 6.399 3.2 3.2 0 0 0 0-6.399Zm12.266 6.454a20.242 20.242 0 0 0-1.226-6.48 13.175 13.175 0 0 0-3.094-4.72 12.533 12.533 0 0 0-4.72-3.067 19.467 19.467 0 0 0-6.48-1.253c-2.826-.16-3.733-.16-10.986-.16-7.254 0-8.16 0-10.987.16-2.216.045-4.407.47-6.48 1.253a12.747 12.747 0 0 0-4.72 3.066 12.534 12.534 0 0 0-3.067 4.72 19.467 19.467 0 0 0-1.253 6.48c-.16 2.827-.16 3.734-.16 10.987 0 7.254 0 8.16.16 10.987.046 2.215.47 4.407 1.253 6.48.651 1.785 1.7 3.4 3.067 4.72a12.746 12.746 0 0 0 4.72 3.067 19.466 19.466 0 0 0 6.48 1.253c2.827.16 3.733.16 10.987.16 7.253 0 8.16 0 10.986-.16a19.466 19.466 0 0 0 6.48-1.253c1.786-.652 3.4-1.7 4.72-3.067a12.933 12.933 0 0 0 3.094-4.72 20.241 20.241 0 0 0 1.226-6.48c0-2.827.16-3.733.16-10.987 0-7.253 0-8.16-.16-10.986Zm-4.8 21.653a14.961 14.961 0 0 1-.906 4.96 8.16 8.16 0 0 1-2 3.066 8.507 8.507 0 0 1-3.067 2 14.94 14.94 0 0 1-4.96.907c-2.667.133-3.653.16-10.667.16-7.013 0-8 0-10.666-.16a15.282 15.282 0 0 1-5.174-.8 8.722 8.722 0 0 1-2.933-2 8 8 0 0 1-1.973-3.066 14.772 14.772 0 0 1-1.067-5.067c0-2.667-.16-3.654-.16-10.667s0-8 .16-10.666c.012-1.731.328-3.446.933-5.067a8 8 0 0 1 2.107-2.933 8.373 8.373 0 0 1 2.933-2.134 15.277 15.277 0 0 1 5.067-.906c2.667 0 3.653-.16 10.667-.16 7.013 0 8 0 10.666.16 1.693.019 3.37.325 4.96.906a8.16 8.16 0 0 1 3.174 2.134 8.16 8.16 0 0 1 2 2.933c.592 1.624.9 3.338.906 5.067.134 2.666.16 3.653.16 10.666 0 7.014-.026 8-.16 10.667ZM32 18.32A13.679 13.679 0 1 0 45.705 32 13.654 13.654 0 0 0 32 18.32Zm0 22.56a8.88 8.88 0 1 1 0-17.76 8.88 8.88 0 0 1 0 17.76Z" fill="currentColor"></path>
</svg>