<svg fill="none" xmlns="http://www.w3.org/2000/svg" viewBox="0 0 648 76">
  <path d="M92.063 41.41c4.73 0 8.672 3.318 8.672 10.844v.03c0 7.094-3.288 11.333-8.761 11.333-3.971 0-6.946-2.29-7.615-5.533l-.03-.163h3.807l.045.133c.58 1.473 1.889 2.425 3.808 2.425 3.45 0 4.893-3.302 5.042-7.363.015-.223.03-.446.03-.684h-.09c-.847 1.963-2.99 3.45-5.89 3.45-4.135 0-7.05-2.974-7.05-7.005v-.03c0-4.328 3.406-7.436 8.032-7.436Zm0 11.513c2.454 0 4.328-1.725 4.328-4.12v-.015c0-2.38-1.874-4.239-4.283-4.239-2.38 0-4.299 1.844-4.299 4.165v.03c0 2.439 1.815 4.179 4.254 4.179Zm13.461-3.718a2.14 2.14 0 0 1-2.157-2.157c0-1.205.952-2.142 2.157-2.142s2.142.937 2.142 2.142c0 1.205-.937 2.157-2.142 2.157Zm0 10.917a2.14 2.14 0 0 1-2.157-2.157c0-1.205.952-2.142 2.157-2.142s2.142.937 2.142 2.142c0 1.205-.937 2.157-2.142 2.157Zm15.335 3.123v-4.12H110.15v-3.272l8.909-14.07h5.459v14.19h2.915v3.152h-2.915v4.12h-3.659Zm-7.259-7.184h7.318V44.683h-.089L113.6 55.957v.104Zm21.612 7.184V45.441h-.089l-5.548 3.808v-3.525l5.607-3.941h3.793v21.462h-3.763Z" fill="currentColor"></path>
  <g opacity=".9" fill="currentColor">
    <rect x="463.57" y="53.076" width="5.538" height="6.646" rx=".554"></rect>
    <rect x="471.328" y="49.754" width="5.538" height="9.969" rx=".554"></rect>
    <rect x="479.641" y="45.876" width="5.538" height="13.846" rx=".554"></rect>
    <rect x="487.383" y="41.445" width="5.538" height="18.277" rx=".554"></rect>
  </g>
  <g opacity=".9" fill="currentColor">
    <path d="M536.765 46.227a19.878 19.878 0 0 0-14.148-5.89 19.875 19.875 0 0 0-14.179 5.922l3.132 3.134a15.463 15.463 0 0 1 11.047-4.624c4.308 0 8.204 1.756 11.015 4.59l3.133-3.132Z"></path>
    <path d="M531.674 51.318a12.7 12.7 0 0 0-9.057-3.78 12.7 12.7 0 0 0-9.088 3.813l3.133 3.133a8.282 8.282 0 0 1 5.955-2.515c2.319 0 4.416.95 5.923 2.482l3.134-3.133Zm-5.092 5.092a5.521 5.521 0 0 0-3.965-1.672 5.522 5.522 0 0 0-3.997 1.705l3.965 3.964 3.997-3.998Z"></path>
  </g>
  <rect opacity=".6" x="553.021" y="41.722" width="37.108" height="17.723" rx="3.6" stroke="currentColor" stroke-width="1.662"></rect>
  <rect opacity=".9" x="554.961" y="43.661" width="33.231" height="13.846" rx="2.215" fill="currentColor"></rect>
  <path opacity=".6" d="M592.062 48.092c1.224 0 2.215.991 2.215 2.215v.553a2.214 2.214 0 0 1-2.215 2.215v-4.983Z" fill="currentColor"></path>
</svg>