<svg xmlns="http://www.w3.org/2000/svg" fill="none" viewBox="0 0 120 27">
	<title>Givingli</title>
  <path fill="currentColor" d="M47.856 11.991h7.02v6.823c-1.558 2.002-4.077 3.238-7.144 3.238-4.943 0-8.724-3.93-8.724-8.949 0-5.018 3.757-8.825 8.698-8.825 3.411 0 6.377 1.755 7.292 4.302l-2.57 1.26c-.766-1.656-2.545-2.743-4.722-2.743-3.335 0-5.705 2.471-5.705 6.006 0 3.585 2.422 6.156 5.734 6.156 1.804 0 3.213-.52 4.251-1.41v-3.09h-4.125l-.005-2.768Zm13.077-6.108a1.79 1.79 0 0 1-1.78 1.78 1.766 1.766 0 0 1-1.755-1.78c0-.939.791-1.755 1.755-1.755.964 0 1.78.816 1.78 1.755Zm-.42 3.857v12.088h-2.744V9.74h2.744Zm9.192 12.09h-2.373L62.266 9.742h2.99l3.263 8.404 3.237-8.402h3.016L69.705 21.83ZM79.69 5.883a1.79 1.79 0 0 1-1.78 1.78 1.766 1.766 0 0 1-1.754-1.78c0-.939.791-1.755 1.755-1.755.964 0 1.78.816 1.78 1.755Zm-.42 3.857v12.088h-2.743V9.74h2.743Zm14.31 5.192v6.897h-2.767v-6.452c0-1.953-1.137-3.14-2.842-3.14-1.236 0-2.422.644-3.04 1.682v7.91h-2.743V9.741h2.743v1.632c.741-1.162 2.175-1.88 3.707-1.88 3.014 0 4.941 2.102 4.941 5.44Zm14.683-5.216v11.668c0 3.338-2.546 5.488-5.981 5.488-2.101 0-4.375-.766-5.487-2.002l1.384-1.904c.964.94 2.447 1.433 4.004 1.433 1.853 0 3.336-1.26 3.336-3.065v-1.359c-.642 1.038-2.249 1.83-3.855 1.83-3.263 0-5.808-2.72-5.808-6.18 0-3.437 2.545-6.131 5.808-6.131 1.606 0 3.213.766 3.855 1.829V9.716h2.744Zm-2.744 7.762v-3.66c-.593-1.038-1.903-1.78-3.287-1.78-2.076 0-3.658 1.533-3.658 3.584 0 2.077 1.582 3.61 3.658 3.61 1.358.001 2.694-.74 3.287-1.754Zm8.4 4.349h-2.743V4.522h2.743v17.305ZM120 5.883a1.79 1.79 0 0 1-1.78 1.78 1.767 1.767 0 0 1-1.755-1.78c0-.939.791-1.755 1.755-1.755.963 0 1.78.816 1.78 1.755Zm-.421 3.857v12.088h-2.743V9.74h2.743ZM22.766 8.105l-.115-.025-.017-.116C21.998 3.47 18.181.12 13.558.003L13.332 0l-.229.003C5.757.127 0 5.937 0 13.229c0 7.352 5.98 13.332 13.33 13.332.254 0 .506-.007.756-.02 7.023-.394 12.543-6.22 12.567-13.266.01-.385-.019-2.361-1.432-3.831-.442-.462-1.228-1.068-2.455-1.339Zm1.027 5.146c-.01 5.537-4.343 10.12-9.865 10.43-.2.01-.395.016-.597.016-5.772 0-10.467-4.696-10.467-10.468 0-5.713 4.516-10.265 10.281-10.363h.353c2.952.075 5.49 2.084 6.18 4.885l.05.21h-6.503a5.368 5.368 0 0 0-3.667 9.346 5.368 5.368 0 0 0 3.975 1.38 9.396 9.396 0 0 0 8.992-7.443l.05-.227.2.115c.137.077.262.173.372.284.523.532.652 1.401.647 1.787l-.001.048Zm-4.105-2.427-.059.215a6.536 6.536 0 0 1-6.177 4.784l-.076.003a2.352 2.352 0 0 1-.453-.014 2.502 2.502 0 0 1 .303-4.988h6.462Z"></path>
</svg>