<svg class="editors-choice-badge" xmlns="http://www.w3.org/2000/svg" viewBox="0 0 120 37" fill="none"><path d="M8.016 10.364c-.004-.368.11-.745.304-1.093.552-.986 1.303-1.753 2.42-2.066.741-.209 1.022.042.839.789-.327 1.332-1.151 2.29-2.376 2.9-.211.105-.45.12-.681.13-.363.013-.514-.184-.506-.66ZM108.387 7.74c-.006-.483.131-.618.613-.596.554.026 1 .304 1.41.639.749.61 1.38 1.312 1.59 2.294.177.833-.162 1.142-.976.875-.902-.297-1.54-.942-2.066-1.707-.4-.584-.565-1.04-.571-1.506Zm3.705 7.287c-1.172-.03-2.11-.502-2.848-1.372-.291-.343-.226-.602.187-.785.952-.42 1.916-.466 2.88-.044.416.183.818.398 1.171.691.251.21.386.468.318.8-.065.32-.316.453-.593.546-.297.098-.605.122-.901.146a6.85 6.85 0 0 0-.214.018ZM10.673 12.926c-.484-.251-.998-.379-1.343-.375-1.047 0-1.81.267-2.513.72-.187.119-.359.26-.48.453-.221.355-.153.741.18.994.139.106.298.167.463.215 1.295.377 3.067-.24 3.846-1.34.205-.289.161-.504-.153-.667Zm60.025 6.183h.003c.065 0 .13 0 .194-.002h.002c.157-.002.314-.004.472.006.25.014.32-.098.28-.33-.123-.73-.42-1.375-.934-1.907-.93-.964-2.103-1.264-3.401-1.219-1.9.068-3.356 1.203-3.864 3.034a6.62 6.62 0 0 0-.074 3.212c.174.795.506 1.516 1.076 2.11 1.263 1.312 3.607 1.634 5.323.726 1.032-.546 1.645-1.408 1.866-2.551.068-.348.028-.396-.314-.398-.15-.002-.3 0-.45 0-.254.003-.508.005-.763-.006-.235-.01-.339.077-.404.3-.176.59-.534 1.042-1.102 1.301-1.258.573-2.625-.022-3.13-1.36-.283-.747-.313-1.52-.218-2.303.068-.55.237-1.063.568-1.517.95-1.303 3.099-1.203 3.706.237.26.613.58.747 1.138.667h.026Zm-54.848.261-.001 1.054v1.284c.002.998.003 1.997-.002 2.996-.002.295.095.382.384.378.657-.011 1.315-.01 1.972-.007l.759.002.736-.001c.655-.002 1.31-.003 1.964.005.25.002.345-.082.33-.333a6.187 6.187 0 0 1 .003-.88c.028-.32-.1-.395-.399-.39-.596.006-1.192.006-1.789.005-.556 0-1.113-.002-1.67.004-.267.002-.356-.085-.348-.35.01-.368.008-.736.006-1.105a67.856 67.856 0 0 1-.003-.473c.002-.42.003-.422.42-.422h.459c.92-.003 1.84-.005 2.758.002.231.002.335-.074.32-.315a5.477 5.477 0 0 1 .003-.788c.03-.315-.1-.397-.398-.393-.577.008-1.155.007-1.732.007-.496 0-.99-.001-1.485.003-.267.002-.358-.087-.348-.352.01-.339.008-.678.006-1.018l-.003-.438c0-.428.002-.428.44-.428l.936-.001c.831-.001 1.663-.003 2.494.005.25.004.345-.076.33-.329a6.911 6.911 0 0 1 0-.91c.019-.287-.097-.364-.368-.362-1.802.01-3.602.01-5.403 0-.295-.002-.38.1-.378.386.009 1.054.008 2.109.007 3.163Zm58.785-.12.005-.006c.283-.366.547-.708.957-.922 1.635-.856 3.503.187 3.579 2.053.04.997.033 1.995.026 2.992-.003.48-.006.96-.004 1.44 0 .197-.082.27-.273.267l-.181-.003c-.345-.006-.69-.012-1.034.007-.303.018-.406-.078-.4-.39.013-.891.01-1.781.007-2.672l-.001-.669v-.02c0-.256 0-.512-.07-.762-.16-.578-.566-.915-1.155-.954a1.307 1.307 0 0 0-1.309.804 2.198 2.198 0 0 0-.147.863v1.073c-.002.776-.003 1.55.008 2.326.004.297-.07.425-.388.403a8.054 8.054 0 0 0-.729-.01c-.122.002-.243.004-.365.004-.404-.002-.406-.002-.406-.4v-8.136c0-.041 0-.083.002-.124.002-.09.004-.182-.004-.27-.02-.234.072-.33.313-.323.414.012.83.014 1.244 0 .253-.008.333.091.331.338-.007.677-.006 1.354-.005 2.031l.001.761c-.002.1-.002.2-.002.299Zm-22.796 3.74h-.066l-.027-.001-.21.002a6.72 6.72 0 0 1-.458-.004c-.225-.014-.286.082-.24.29.109.5.336.933.742 1.253.944.745 2.042.747 3.155.622a2.831 2.831 0 0 0 1.319-.512c.709-.5.97-1.199.842-2.04-.112-.734-.645-1.085-1.287-1.312-.381-.135-.776-.215-1.17-.295h-.001c-.18-.037-.36-.073-.54-.115l-.12-.027c-.236-.052-.473-.104-.68-.242-.359-.237-.39-.703-.06-.98.442-.37 1.63-.392 1.916.424.068.191.183.24.365.235a20.03 20.03 0 0 1 1.093.002c.287.012.352-.125.305-.374-.116-.602-.426-1.09-.96-1.374-1.29-.687-2.595-.67-3.888.014-.073.038-.14.093-.204.147l-.017.014c-1.028.836-.888 2.46.267 3.105.349.195.725.303 1.111.392.166.039.334.07.501.103.37.07.74.14 1.09.282.254.101.419.27.415.571-.004.295-.156.478-.41.58-.45.179-.909.191-1.363.018-.193-.074-.396-.184-.456-.377-.127-.404-.41-.44-.755-.404-.069.007-.138.005-.209.004Zm44.636-2.242h-.043a.776.776 0 0 0-.108.002c-.439.048-.725-.026-.934-.528-.365-.878-1.638-.93-2.22-.149-.56.755-.57 2.356-.019 3.117.333.456.795.611 1.334.534.504-.072.869-.365 1.01-.85.088-.303.247-.365.524-.351.343.018.687.014 1.032.002.248-.008.314.085.276.328-.195 1.231-1.165 2.173-2.467 2.324-1.006.118-1.984.028-2.822-.64-.755-.602-1.086-1.423-1.173-2.349-.068-.707-.032-1.414.219-2.095a3.032 3.032 0 0 1 2.712-2.012c.651-.035 1.297-.016 1.906.26.918.413 1.468 1.109 1.623 2.112.032.207-.016.31-.24.3a6.321 6.321 0 0 0-.438-.006l-.172.001Zm-61.797.392.002.59c.011.22.007.454.002.699-.008.426-.017.882.057 1.337.118.713.52 1.17 1.221 1.352.483.125.973.1 1.462.077l.2-.01c.169-.007.222-.11.22-.264l-.003-.19a5.34 5.34 0 0 1 .01-.569c.025-.299-.096-.378-.383-.372-.604.014-.853-.196-.87-.797a62.572 62.572 0 0 1-.017-2.136v-.008c0-.327.002-.655 0-.983-.001-.177.078-.259.258-.255.147.004.295.002.442.001.105 0 .21-.002.316 0 .16.001.25-.059.247-.23-.004-.315-.004-.63 0-.942 0-.165-.073-.239-.239-.237a6.36 6.36 0 0 1-.276-.002h-.002a5.409 5.409 0 0 0-.419.004c-.257.016-.338-.097-.33-.34.005-.163.004-.325.002-.487-.002-.172-.004-.344.004-.515.01-.253-.062-.37-.341-.359-.414.02-.83.014-1.245.002-.23-.008-.33.064-.32.309.009.191.007.383.005.574-.002.173-.004.346.003.52.008.228-.088.294-.305.298-.663.01-.663.018-.663.69v.059c0 .64 0 .65.64.65.254-.003.334.089.328.336-.01.385-.008.771-.006 1.197v.002Zm13.545-1.893c.03-.056.058-.113.087-.17.06-.12.12-.24.194-.352a1.543 1.543 0 0 1 1.65-.637c.154.04.184.137.184.269v.338c-.002.281-.002.563.002.845.004.19-.088.22-.247.185a1.88 1.88 0 0 0-.843-.004c-.52.123-.858.43-.992.952a2.91 2.91 0 0 0-.083.72c.002 1.094.002 2.186 0 3.279 0 .396-.006.4-.412.402h-.407a20.179 20.179 0 0 0-.747.004c-.227.008-.328-.061-.326-.306.006-2.094.006-4.189.002-6.282 0-.203.066-.295.28-.29.435.01.871.011 1.305 0 .247-.009.319.105.309.33-.007.164-.005.33-.004.494l.002.219a.39.39 0 0 1 .046.004Zm39.721 1.557-.001.817v.389c.003.91.005 1.822-.004 2.732-.002.247.076.346.33.336.425-.014.85-.01 1.273-.002.203.004.291-.073.291-.283-.004-2.1-.004-4.204 0-6.305 0-.205-.078-.293-.287-.289-.414.008-.828.014-1.243-.004-.276-.012-.37.082-.366.363.01.747.009 1.492.007 2.239v.007Zm-54.974.831v.844c-.001.75-.002 1.498.005 2.249.002.26-.074.364-.345.352a18.459 18.459 0 0 0-1.243-.002c-.217.004-.308-.073-.308-.298.004-2.092.004-4.185 0-6.276 0-.22.077-.31.302-.305.415.01.829.014 1.243-.002.263-.01.355.078.353.347-.01.755-.009 1.51-.007 2.265v.826ZM13.234 33.734c.135-.353.18-.723.187-1.201l-.007-.094a4.025 4.025 0 0 0-.049-.44 29.163 29.163 0 0 1-.052-.294c-.085-.49-.17-.98-.372-1.439-.135-.304-.322-.563-.7-.593-.493-.04-.784.183-.929.759a5.43 5.43 0 0 0 .177 3.308c.172.458.472.68.87.677.389-.004.708-.247.875-.683Zm97.312 2.834c-.45-.004-.89-.056-1.297-.265-.32-.165-.523-.412-.537-.783-.012-.37.173-.637.484-.816.157-.09.324-.172.495-.221.801-.233 1.614-.37 2.452-.25.201.03.398.08.58.17.677.336.737 1.195.087 1.585-.689.418-1.469.54-2.264.58ZM6.859 35.586c.69.669 1.539.94 2.529.972.448-.026.94-.076 1.406-.275.336-.142.534-.4.544-.771a.787.787 0 0 0-.468-.759c-1.291-.63-2.59-.848-3.902-.048-.486.295-.518.486-.11.88Zm108.413-11.838c-.271.014-.564-.062-.841-.193a4.454 4.454 0 0 1-2.135-2.113 1.88 1.88 0 0 1-.203-.727c-.022-.418.102-.554.512-.57a2.02 2.02 0 0 1 .888.164 4.616 4.616 0 0 1 2.279 2.093c.091.171.149.354.191.542.131.597-.044.812-.691.804Zm-6.835 10.173c.255-.663.4-1.352.452-1.862.02-.908-.211-1.55-.556-2.157-.251-.444-.472-.47-.812-.098-1.01 1.104-1.068 2.988-.61 4.12.136.334.387.543.767.545.384.002.629-.212.759-.548ZM3.04 28.683c.503.1.724-.078.72-.651v-.003c-.003-.029-.009-.108-.022-.187-.211-1.34-1.874-2.86-3.229-2.953-.268-.018-.414.123-.482.364a.77.77 0 0 0 .024.478c.532 1.456 1.347 2.623 2.99 2.952Zm115.695-13.999c.022 1.125-.29 2.115-1.159 2.88-.378.332-.641.28-.842-.174-.411-.932-.444-1.878-.076-2.832l.035-.09c.141-.366.283-.734.491-1.069.181-.29.392-.557.789-.506.354.046.585.315.673.763.069.339.085.683.089 1.028Zm-.42 8.349c1.185-.807 1.595-2.004 1.685-3.378l-.003-.044-.001-.033c-.012-.216-.024-.448-.255-.576-.247-.136-.474-.008-.681.12-.707.437-1.295.993-1.669 1.752-.311.631-.394 1.31-.408 2-.01.481.261.647.719.483.219-.077.42-.193.613-.324ZM4.787 27.823c.03-1.52 1.114-3.053 2.54-3.591.328-.124.55.002.627.345.082.356.022.7-.07 1.047-.28 1.062-.766 1.98-1.75 2.557a2.954 2.954 0 0 1-.52.247c-.587.211-.838.022-.827-.605Zm111.461.275c-.04.424.122.611.556.613l.039-.003c.04-.004.097-.009.152-.019 1.364-.22 2.784-1.706 2.947-3.08.074-.616-.089-.777-.703-.676-.96.16-1.633.767-2.226 1.476-.408.486-.701 1.04-.765 1.689ZM3.603 15.975c.02.474-.114.976-.363 1.45-.229.44-.448.472-.826.133-.634-.566-.964-1.282-1.072-2.115-.07-.545-.031-1.091.008-1.636l.002-.027c.044-.615.339-.898.829-.87.308.018.49.209.647.444.39.58.775 1.848.775 2.62Zm.484 6.955c-.156.61.02.83.695.816a1.77 1.77 0 0 0 .757-.163c1.278-.59 2.06-1.587 2.407-2.942.056-.22-.031-.376-.239-.46a.92.92 0 0 0-.476-.058c-1.324.174-2.808 1.492-3.144 2.807Zm4.985 8.649c.856-.775 1.109-1.774 1.075-3.007a5.6 5.6 0 0 0-.074-.992c-.051-.279-.16-.534-.47-.612a.796.796 0 0 0-.828.241 1.71 1.71 0 0 0-.297.457c-.233.505-.436 1.023-.53 1.575-.127.745-.071 1.47.25 2.165.23.498.463.545.874.173Zm103.035-1.709c-.044.197-.049.404-.055.614-.006.226-.012.456-.066.683-.138.567-.761.77-1.205.39a1.765 1.765 0 0 1-.466-.665c-.443-1.034-.697-2.09-.329-3.207.066-.2.151-.396.249-.583.169-.319.39-.355.657-.11a3.616 3.616 0 0 1 1.149 2.245c.017.132.03.262.043.4v.001l.023.232Zm2.055-1.542c.704.377 1.016.144.99-.715.012-.436-.131-.898-.354-1.334-.418-.814-.95-1.535-1.807-1.934-.675-.312-1.053-.085-.985.65.133 1.471.838 2.626 2.156 3.333ZM3.877 10.77c-.02-.918.335-1.71.82-2.462.106-.163.178-.14.291-.003 1.168 1.412 1.414 2.953.66 4.638-.104.233-.241.43-.516.456-.293.028-.462-.17-.604-.386a4.211 4.211 0 0 1-.65-2.243Zm109.799 22.183.218.02c1.442-.004 2.493-.608 3.2-1.805.204-.344.12-.561-.258-.66-1.673-.447-3.062.143-4.089 1.42-.325.402-.106.89.41.97.176.026.356.041.519.055Zm-1.115-16.619c1.338-.008 2.456.435 3.223 1.588.322.486.237.725-.323.878-1.048.289-2.026.145-2.912-.498a10.139 10.139 0 0 1-.814-.679c-.269-.241-.401-.546-.267-.9.128-.34.446-.364.75-.388h.009c.074-.006.148-.004.223-.002l.111.001ZM4.498 18.775c.341.1.688.165 1.094.159 1.23.01 2.13-.705 2.906-1.607.346-.407.08-.922-.457-.946l-.271-.016c-.37-.022-.742-.045-1.117.016-1.06.173-1.888.685-2.457 1.597-.255.41-.154.665.302.797Zm111.63-7.935c.032.737-.225 1.43-.609 2.085-.036.062-.076.12-.12.176-.344.438-.703.412-.966-.076a3.968 3.968 0 0 1-.34-.97c-.337-1.406.01-2.635.948-3.716.123-.144.201-.158.32.012.46.659.767 1.613.767 2.49ZM3.361 31.645c.644.822 1.45 1.34 2.594 1.326.16.015.344-.011.538-.04.091-.012.185-.026.278-.035.257-.024.468-.124.578-.377.111-.257.03-.48-.138-.673-1.02-1.175-2.256-1.745-3.832-1.37h-.001c-.648.155-.65.156-.301.739.087.147.179.294.284.43ZM2.94 22.52c-.009.147-.01.273-.012.379-.008.538-.009.555-.79.214-1.316-.576-2.174-1.956-2.13-3.366.026-.82.308-.99 1.021-.592 1.349.757 1.882 1.968 1.91 3.364Zm56.04-6.694h-.35c-.16 0-.32 0-.48-.003-.167-.002-.254.062-.276.241-.128 1.02-.261 2.042-.398 3.061-.024.178.04.244.209.241.292-.003.585-.003.878-.002.13.002.205-.051.239-.18.19-.727.384-1.452.576-2.177l.002-.004.252-.953c.04-.15-.011-.23-.177-.227-.159.005-.317.004-.476.003Zm29.907 1.482c-.558-.004-1.002-.432-1-.966.002-.545.46-.99 1.02-.985a.977.977 0 0 1 .984 1.01c-.008.553-.424.945-1.004.941Zm-57.864-.97c-.002.574.416.976 1.01.97.555-.006 1-.44.993-.97a1.003 1.003 0 0 0-1.023-.981.978.978 0 0 0-.98.981Z" fill="currentColor"></path><path d="M27.924 17.84v1.419a.759.759 0 0 1-.072.013l-.029-.037a.346.346 0 0 1-.04-.056c-.773-1.548-3.484-1.534-4.354.243a4.418 4.418 0 0 0-.442 1.597c-.084 1.024.004 2.016.51 2.946.888 1.637 3.544 1.67 4.311.101.018-.034.04-.075.116-.03l.002.201c.003.158.006.319-.006.48-.022.285.101.373.372.361.244-.01.489-.008.733-.006.13.001.26.003.39.002.397-.002.399-.002.399-.412v-5.565c-.001-.979-.002-1.958.004-2.938.002-.242-.072-.352-.329-.342-.414.016-.83.012-1.245.002-.232-.006-.326.084-.322.32.005.398.004.794.003 1.19l-.001.511Zm-2.802 2.596c-.184.372-.241.768-.232 1.183-.012.392.032.782.198 1.15.25.556.673.887 1.292.89.606.003 1.046-.308 1.289-.85.36-.798.358-1.61-.032-2.401-.255-.518-.691-.793-1.267-.787-.575.006-.994.297-1.248.815Zm77.085 1.656-.589.002c-.492.001-.983.003-1.474-.006-.253-.004-.313.086-.271.327.117.66.414 1.16 1.101 1.34.687.181 1.325-.04 1.739-.611a.337.337 0 0 1 .303-.157l.242.001c.324.002.647.005.97-.003.257-.006.291.103.216.316-.293.827-.855 1.394-1.673 1.683a4.05 4.05 0 0 1-2.823-.018c-.896-.332-1.467-.998-1.744-1.894-.313-1.012-.317-2.041.07-3.037.477-1.237 1.414-1.88 2.734-1.962 1.022-.064 1.954.146 2.689.922.625.662.872 1.47.88 2.358l.005.261c.006.254.009.375-.05.432-.054.052-.161.05-.364.046a9.172 9.172 0 0 0-.322-.002c-.382.006-.765.005-1.148.003h-.491Zm-1.052-1.209h-.166c-.281-.001-.562-.002-.843.002-.206.002-.261-.077-.213-.28.161-.69.709-1.134 1.414-1.13.695.002 1.222.44 1.378 1.13.046.2-.014.282-.219.28-.295-.003-.59-.002-.885-.002h-.466ZM38.55 22.09c.18 1.999 1.39 3.116 3.387 3.116 1.717 0 2.866-.827 3.27-2.372a4.662 4.662 0 0 0 .004-2.37c-.286-1.107-.957-1.882-2.063-2.23a4.07 4.07 0 0 0-2.274-.04c-.986.254-1.677.864-2.056 1.812-.268.669-.334 1.366-.268 2.083Zm4.377 1.21c.424-.465.492-1.046.502-1.642.008-.523-.064-1.031-.35-1.481-.545-.847-1.7-.86-2.263-.034-.508.745-.5 2.276.014 3.011a1.328 1.328 0 0 0 2.097.145Zm40.616 1.906c-2.049 0-3.326-1.257-3.39-3.314-.033-1.134.17-2.177 1.036-2.996.172-.161.359-.295.562-.412 1.187-.68 3.531-.655 4.585.878.962 1.398.812 3.82-.35 4.967-.678.667-1.514.9-2.443.877Zm1.492-3.562c.01.455-.045.903-.26 1.319-.26.502-.66.78-1.237.773-.576-.008-.994-.285-1.217-.801a3.165 3.165 0 0 1-.014-2.563c.215-.512.615-.819 1.197-.829.6-.01 1.018.273 1.282.8.208.41.257.847.25 1.301Z" fill="currentColor" fill-rule="evenodd" clip-rule="evenodd"></path><path d="M63.316 2.966c-.051.04-.952.541-.952 1.657 0 1.292 1.147 1.748 1.18 1.76a4.539 4.539 0 0 1-.604 1.234c-.377.536-.77 1.071-1.369 1.071-.598 0-.752-.343-1.443-.343-.674 0-.913.355-1.46.355-.548 0-.93-.496-1.37-1.105-.508-.715-.92-1.827-.92-2.881 0-1.691 1.114-2.588 2.209-2.588.581 0 1.066.377 1.432.377.347 0 .89-.4 1.552-.4.25 0 1.152.023 1.745.863Zm-2.06-1.58c.274-.32.468-.766.468-1.211A.822.822 0 0 0 61.707 0c-.446.017-.975.293-1.295.66-.25.281-.485.727-.485 1.178a.79.79 0 0 0 .017.158.698.698 0 0 0 .12.011c.4 0 .902-.264 1.192-.62Z" fill="currentColor"></path></svg>