<svg width="57" height="84" viewBox="0 0 57 84" fill="none" xmlns="http://www.w3.org/2000/svg">
<g clip-path="url(#clip0_67_258)">
<path d="M32.027 2.44098C35.4663 -1.00326 41.8755 -0.802612 44.9367 3.04293C47.3445 6.09416 47.6529 10.1934 47.5269 13.9328C47.2997 20.1364 45.7293 26.2041 43.7129 32.0478C47.8387 31.7444 52.1784 33.4043 54.7255 36.7291C56.4285 38.9197 56.7386 41.7985 56.8663 44.4799C57.0504 50.5592 57.1449 56.7313 55.7636 62.6911C54.5364 67.6809 51.7207 72.6922 46.9415 75.0105C46.2782 75.1896 46.2616 75.949 45.9748 76.4515C44.8305 78.8129 42.6582 80.501 40.3101 81.5739C35.5193 83.8574 30.0155 84.4759 24.7936 83.6551C21.6545 83.1874 18.5352 82.1394 16.0047 80.1959C14.5794 79.1223 13.487 77.6672 12.854 75.9988C8.42142 74.7203 4.42497 71.7138 2.2974 67.5864C-0.989301 61.343 -0.461971 53.7414 2.10172 47.3438C3.27744 44.0853 5.97214 41.301 9.38322 40.447C7.81946 34.7774 5.96385 29.1923 4.09332 23.6172C2.78162 19.9076 1.67223 15.8763 2.60087 11.9429C3.88437 7.23338 9.44789 4.4906 14.043 5.73431C16.5652 6.39762 18.3926 8.46383 19.779 10.5632C22.2846 14.5431 23.4355 19.2012 24.2132 23.7946C24.8583 27.7479 25.1501 31.7543 25.3955 35.7475H26.0257C27.1318 30.2138 27.6591 24.5873 27.9642 18.9591C28.1748 15.7503 28.0488 12.5017 28.7104 9.34106C29.2179 6.81385 30.2128 4.3082 32.027 2.44098ZM34.5509 4.23688C32.8628 5.46732 31.9955 7.50368 31.5079 9.47537C30.7916 12.2331 30.9027 15.1003 30.7418 17.921C30.4765 23.9405 30.047 29.98 28.8746 35.9017C30.5329 36.293 32.2376 36.6777 33.7184 37.5599L33.3271 37.681C28.7071 37.5417 24.0573 37.3991 19.4639 37.9894C18.9664 37.9729 18.459 37.9812 17.9582 37.9894C19.3478 37.1189 20.9298 36.6446 22.4985 36.2101C22.53 35.8071 22.5532 35.4075 22.5765 35.0095C22.2299 28.5671 21.6926 22.0153 19.4257 15.9244C18.2782 13.0639 16.7277 9.98612 13.7876 8.64457C10.3682 7.19026 6.09485 9.55331 5.28562 13.1219C4.60075 17.0023 6.00199 20.8014 7.23243 24.4164C9.00845 29.7097 10.6966 35.0294 12.2537 40.3923C14.9285 40.9146 17.3363 42.2429 19.8818 43.1417C24.0706 44.7817 28.402 46.0238 32.7599 47.1216C33.1909 44.4239 33.9777 41.7953 35.0998 39.3045C35.2208 39.0143 35.3419 38.7241 35.4629 38.4372C35.9604 37.5036 36.5989 36.6695 37.2074 35.8154C38.0747 34.6331 39.4726 34.0311 40.4079 32.9466C42.8025 26.884 44.4939 20.4747 44.7974 13.9411C44.945 11.1552 44.7692 8.19353 43.2834 5.75255C41.9783 3.57523 39.1758 2.12092 36.6718 2.99317C35.9007 3.26679 35.0517 3.54206 34.5509 4.23688ZM39.8872 37.1702C37.0681 40.2895 35.851 44.4667 35.2706 48.5477C35.7986 49.3646 36.1646 50.2756 36.3485 51.2308C36.4164 52.8488 36.2771 54.4688 35.9339 56.0514C37.7232 58.1408 40.7611 59.1839 43.416 58.2967C45.0925 57.6748 46.3363 56.2686 47.2301 54.7712C49.6097 50.662 50.7987 45.9823 51.3376 41.2927C52.3873 42.9311 52.5448 44.984 52.452 46.8861C52.1962 49.936 51.33 52.9034 49.9049 55.6119C48.6396 57.9965 46.7276 60.2651 44.0793 61.1174C40.8158 62.0328 37.3202 60.8571 34.7267 58.8157C33.1861 61.0809 30.6672 62.4955 28.0239 63.0659C29.2626 65.3178 29.848 68.0921 28.999 70.5812C28.3224 68.2745 27.548 65.7921 25.6095 64.2184C24.1469 62.9548 22.1171 62.9764 20.3179 62.6298C17.6729 62.0295 15.0628 61.0279 12.9286 59.3132C11.0349 57.8208 9.59879 55.6816 9.23729 53.2721C13.4941 57.5007 19.2516 60.4906 25.3458 60.5088C27.7055 60.6282 30.2195 59.8455 31.7716 57.9883C33.012 56.33 33.8179 54.2522 33.6073 52.1627C33.41 50.7234 32.09 49.7201 30.7518 49.3967C25.1501 48.0386 19.7176 46.0603 14.4061 43.8349C12.4311 43.0389 10.0283 42.7255 8.11795 43.8614C5.93069 45.2776 4.69195 47.7318 3.94904 50.1628C3.03202 53.3716 2.50634 56.7446 2.86619 60.0827C3.26252 63.8337 4.8213 67.5681 7.65364 70.1302C10.1933 72.3235 13.3414 73.6905 16.678 74.0487C20.1305 74.5627 23.6112 73.8828 26.9593 73.0537C24.4304 75.6937 20.5567 76.5361 17.0212 76.3918C17.071 76.4896 17.1721 76.687 17.2186 76.7848C18.8686 78.7449 21.1769 80.0599 23.6394 80.6967C27.9356 81.7784 32.4511 81.6133 36.6569 80.2208C38.6883 79.5409 40.6749 78.4232 41.897 76.6157L42.1508 76.3072C40.2537 76.415 38.3367 76.4416 36.4562 76.0701C34.5542 75.7103 32.7185 74.7766 31.5063 73.2361C35.1694 73.8265 38.9553 74.4583 42.6383 73.7153V73.6623C45.0726 73.13 47.4224 71.9576 49.0906 70.0738C52.7969 65.8767 53.8698 60.0909 54.0904 54.6617L54.3325 54.607C53.835 54.1792 54.2777 53.4927 54.2197 52.9488C54.5033 49.4233 54.1716 45.8961 53.9925 42.3756C53.9013 40.4586 52.9014 38.7108 51.6212 37.3278C49.5881 35.5037 46.7591 34.4988 44.0263 34.8885C42.4123 35.1122 40.938 35.9249 39.8872 37.1702Z" fill="#210502"/>
<path d="M34.5518 4.23704C35.0492 3.54222 35.9016 3.26695 36.6727 2.99333C39.1767 2.12108 41.9792 3.57539 43.2842 5.75271C44.7767 8.19369 44.9425 11.1554 44.7983 13.9413C44.4948 20.4749 42.8083 26.8758 40.4088 32.9468C39.4735 34.0313 38.0756 34.6333 37.2083 35.8156C35.3146 35.3712 33.3694 35.2037 31.4541 34.8803C31.4985 34.045 31.6016 33.2138 31.7625 32.3929C32.6624 26.4634 33.08 20.4706 33.0112 14.4736C32.9582 11.5965 33.517 8.75252 34.2682 5.98983C34.4242 5.41717 34.5192 4.82966 34.5518 4.23704Z" fill="#F2A20C"/>
<path d="M5.27215 13.1286C6.08139 9.55338 10.3548 7.19033 13.7741 8.65128C16.7226 9.99282 18.273 13.0706 19.4206 15.9311C21.6941 22.022 22.2396 28.5738 22.5713 35.0162C19.6345 35.2766 16.8834 36.4141 14.2069 37.5816C13.6135 35.0489 12.7743 32.5802 11.7013 30.2105C10.7693 28.1211 9.52066 26.1975 8.51409 24.1462C7.05341 21.2504 5.986 18.1725 5.34014 14.9942C5.23181 14.3784 5.20893 13.7506 5.27215 13.1286Z" fill="#F2A20C"/>
<path d="M39.8881 37.17C40.9389 35.9273 42.4118 35.1164 44.0239 34.8932C46.7567 34.5035 49.5857 35.5018 51.6188 37.3326C49.5492 41.193 49.0882 45.75 46.6091 49.4131C45.3986 51.1626 43.6557 52.8457 41.4104 52.9585C39.5482 53.1376 37.812 52.2836 36.3444 51.2306C36.162 50.2757 35.7978 49.3648 35.2715 48.5475C35.8519 44.4731 37.0757 40.2893 39.8881 37.17Z" fill="#F2A20C"/>
<path d="M19.4636 37.9891C24.057 37.3988 28.7068 37.5414 33.3267 37.6807L33.7181 37.5596C34.3002 37.8498 34.8905 38.1201 35.4626 38.4369C35.3416 38.7237 35.2205 39.0139 35.0994 39.3041C29.0501 39.2461 23.0405 40.0139 17.0342 40.6308C17.792 39.7021 18.8069 39.0057 19.4636 37.9891Z" fill="#F2A20C"/>
<path d="M8.11647 43.8646C10.0268 42.7287 12.428 43.0354 14.4047 43.838C19.7111 46.0634 25.1486 48.0418 30.7503 49.3999C32.0885 49.7316 33.4035 50.7265 33.6058 52.1659C33.8164 54.2553 33.0105 56.3365 31.7701 57.9914C29.5912 58.2485 27.4172 58.9499 25.2067 58.5436C20.0295 57.5719 15.3847 54.8838 11.1246 51.8923C10.1611 51.2456 8.98873 50.438 7.77819 50.8973C6.3985 51.5208 5.87946 53.1178 5.67881 54.5091C5.20952 58.086 5.11499 61.8469 6.39518 65.2879C7.37854 68.0754 9.54591 70.3555 12.1793 71.6573C14.1692 72.5876 16.257 73.2973 18.3431 73.9789C17.7875 74.0154 17.232 74.0502 16.6848 74.0469C13.3478 73.6877 10.1997 72.3196 7.66045 70.125C4.82811 67.563 3.26933 63.8236 2.87301 60.0775C2.51316 56.7394 3.03883 53.3665 3.95586 50.1577C4.69048 47.735 5.92921 45.2807 8.11647 43.8646Z" fill="#F2A20C"/>
<path d="M53.6484 50.4692C53.9067 51.8532 54.0536 53.2556 54.0878 54.663C53.8672 60.0922 52.7943 65.8779 49.0881 70.075C47.4199 71.9588 45.0701 73.1312 42.6357 73.6636C42.6357 73.579 42.6357 73.4132 42.6357 73.3319C45.8521 71.4203 48.4365 68.6065 50.0681 65.2395C51.355 62.306 52.4229 59.2548 52.9651 56.0875C53.3349 54.2335 53.4295 52.3414 53.6484 50.4692Z" fill="#F2A20C"/>
<path d="M17.2158 76.7863C17.9703 76.5625 18.9106 76.2557 19.5789 76.8444C20.3349 77.4514 21.1571 77.9709 22.0298 78.3932C25.9102 80.1974 30.361 80.1112 34.5017 79.4413C35.9941 79.2257 37.3473 78.5408 38.6673 77.851C39.7054 77.3535 40.707 76.6669 41.8943 76.6172C40.6721 78.4247 38.6855 79.5424 36.6541 80.2223C32.4484 81.6148 27.9329 81.7799 23.6367 80.6982C21.1741 80.0614 18.8658 78.7464 17.2158 76.7863Z" fill="#F2A20C"/>
<path d="M31.5074 9.47579C31.9949 7.5041 32.8622 5.46775 34.5503 4.2373C34.5181 4.8316 34.423 5.4208 34.2667 5.99507C33.5155 8.75776 32.9567 11.6017 33.0098 14.4788C33.079 20.4786 32.6614 26.4742 31.7611 32.4064C31.6001 33.2273 31.497 34.0585 31.4526 34.8939C33.368 35.2172 35.3131 35.3913 37.2069 35.8291C36.5983 36.6831 35.9532 37.5173 35.4624 38.4509C34.8903 38.1341 34.3016 37.8638 33.7178 37.5736C32.237 36.6914 30.5323 36.3067 28.874 35.9154C30.0464 29.9937 30.4759 23.9542 30.7412 17.9347C30.9021 15.1007 30.791 12.2335 31.5074 9.47579Z" fill="#F2A20C"/>
<path d="M7.21788 24.4229C5.98744 20.8079 4.58619 17.0088 5.27106 13.1284C5.20784 13.7504 5.23072 14.3782 5.33905 14.994C5.98993 18.1719 7.06237 21.2487 8.52792 24.1427C9.53449 26.194 10.7832 28.1226 11.7151 30.207C12.7882 32.5767 13.6274 35.0454 14.2208 37.578C16.8972 36.4172 19.6483 35.273 22.5851 35.0127C22.5619 35.4107 22.5387 35.8103 22.5072 36.2133C20.9385 36.6477 19.3565 37.122 17.9668 37.9926C18.4643 37.9843 18.9618 37.976 19.4725 37.9926C18.8092 39.0091 17.801 39.7023 17.0432 40.6343C23.0494 40.0174 29.059 39.2496 35.1084 39.3076C33.9791 41.8012 33.1862 44.4338 32.7504 47.1363C28.3924 46.0303 24.061 44.7882 19.8722 43.1565C17.3218 42.2577 14.9139 40.9294 12.2441 40.4071C10.682 35.0376 8.98726 29.7162 7.21788 24.4229Z" fill="#F2A20C"/>
<path d="M51.6191 37.333C52.8993 38.716 53.8993 40.4638 53.9905 42.3808C54.1696 45.9013 54.5012 49.4285 54.2176 52.954C54.2757 53.4946 53.8279 54.1811 54.3304 54.6123L54.0883 54.667C54.0541 53.2596 53.9072 51.8571 53.6489 50.4732C53.43 52.3454 53.3354 54.2375 52.9656 56.0948C52.4234 59.2621 51.3555 62.3133 50.0686 65.2468C48.4399 68.6093 45.861 71.4205 42.6512 73.3326C42.6512 73.4138 42.6512 73.5796 42.6512 73.6642V73.7173C38.9681 74.4602 35.1889 73.8284 31.5192 73.238C32.7314 74.7786 34.5671 75.7122 36.4691 76.072C38.343 76.4435 40.2666 76.4169 42.1636 76.3091L41.9099 76.6176C40.7226 76.6673 39.721 77.3506 38.6829 77.8514C37.3563 78.5412 36.0081 79.2261 34.5173 79.4416C30.3716 80.1049 25.9258 80.1978 22.0454 78.3936C21.1677 77.9733 20.3404 77.4549 19.5796 76.8481C18.9163 76.2594 17.971 76.5662 17.2165 76.7901C17.1701 76.6922 17.0689 76.4949 17.0192 76.397C20.5546 76.5347 24.4284 75.6989 26.9572 73.0589C23.6108 73.8881 20.1301 74.5613 16.6759 74.0539C17.2314 74.0539 17.787 74.0224 18.3342 73.9859C16.2481 73.301 14.162 72.5913 12.1704 71.6643C9.53538 70.3626 7.36967 68.0824 6.38631 65.2949C5.10612 61.8622 5.20065 58.1013 5.66994 54.5161C5.87059 53.1248 6.38963 51.5312 7.76931 50.9044C8.97986 50.4434 10.1523 51.2509 11.1157 51.8993C15.3758 54.8842 20.0207 57.5789 25.1978 58.5507C27.4083 58.9569 29.5823 58.2555 31.7613 57.9984C30.2091 59.8524 27.6952 60.6384 25.3354 60.519C19.2413 60.5008 13.4837 57.5109 9.22694 53.2823C9.58845 55.6918 11.0245 57.8343 12.9183 59.3234C15.0525 61.0348 17.6626 62.0364 20.3075 62.64C22.1068 62.9865 24.1365 62.9716 25.5991 64.2286C27.5376 65.8023 28.312 68.2847 28.9886 70.5914C29.8426 68.104 29.2523 65.328 28.0136 63.0761C30.6568 62.5056 33.1758 61.0862 34.7163 58.8259C37.3099 60.8673 40.8055 62.043 44.069 61.1276C46.7222 60.2753 48.6293 58.0067 49.8945 55.6221C51.3197 52.9136 52.1859 49.9462 52.4416 46.8963C52.5345 44.9943 52.377 42.9413 51.3273 41.3029C50.7883 45.9892 49.5993 50.6722 47.2197 54.7814C46.3226 56.2739 45.0789 57.685 43.4057 58.3069C40.7524 59.1941 37.7128 58.151 35.9235 56.0616C36.2668 54.479 36.4061 52.8589 36.3381 51.241C37.8057 52.294 39.5419 53.148 41.4041 52.9689C43.6494 52.8561 45.384 51.173 46.6028 49.4235C49.0886 45.7504 49.5496 41.1951 51.6191 37.333Z" fill="#F2A20C"/>
</g>
<defs>
<clipPath id="clip0_67_258">
<rect width="56.9668" height="84" fill="white"/>
</clipPath>
</defs>
</svg>
