<svg width="372" height="395" viewBox="0 0 372 395" fill="none" xmlns="http://www.w3.org/2000/svg">
<path d="M348.692 268.039C353.86 264.632 362.826 261.604 366.718 257.012C354.181 250.441 341.017 244.571 328.577 237.546C303.209 223.221 278.485 207.982 253.194 193.521C247.5 190.265 241.777 187.048 236.011 183.891C200.265 164.313 167.126 140.246 131.29 120.62L30.2707 65.2933C21.7678 60.6364 13.3571 55.7273 4.73145 51.3059C3.8479 50.853 3.20524 50.6397 2.75555 50.61C0.272245 50.4461 3.67352 55.8804 4.88769 57.4726C6.60996 59.731 6.5621 66.7935 7.20205 69.752C8.95436 77.8529 10.0425 86.0563 11.6411 94.2069C15.3417 113.074 14.2849 132.369 13.303 151.491C12.6366 164.47 14.2165 176.29 15.574 189.058C17.1003 203.413 15.0112 216.89 18.5447 231.198C25.4477 259.151 25.2931 287.028 29.2318 315.367C31.1693 329.308 29.5954 343.486 31.0118 357.431C32.0687 367.836 28.8047 383.636 33.0963 393.087C33.4727 393.916 61.1734 385.361 64.1787 384.8C82.5986 381.359 100.484 375.325 118.659 371.002C136.064 366.862 152.283 358.579 168.881 352.076C189.557 343.976 209.314 335.105 229.532 325.961C236.285 322.907 243.323 320.716 249.979 317.437C258.613 313.184 268.299 311.314 276.699 306.761C290.256 299.412 304.01 292.237 317.911 285.531C328.785 280.285 338.557 274.721 348.692 268.039Z" fill="#3B4F3C"/>
<path d="M287.637 176.891C300.073 171.996 308.846 163.578 320.178 156.685C332.37 149.27 345.526 144.006 358.662 138.612C358.053 136.165 357.073 134.242 355.531 133.398C336.19 122.805 317.316 111.577 298.249 100.546C287.104 94.0978 277.209 86.0639 265.864 79.8508L126.157 3.33548C122.272 1.20757 117.859 3.05671 113.589 3.0263C111.788 3.01347 110.093 3.08201 108.453 3.24665C109.381 10.0282 109.408 17.3842 109.791 23.0595C110.801 38 112.81 54.9086 111.927 69.8307C111.164 82.7012 111.74 95.631 108.077 107.906L131.29 120.62C167.126 140.246 200.265 164.313 236.011 183.891C241.777 187.048 247.5 190.265 253.194 193.521C253.285 193.373 253.37 193.227 253.45 193.081C263.755 183.52 274.782 181.951 287.637 176.891Z" fill="#3B4F3C"/>
<path d="M47.248 29.4766C36.3302 34.2048 25.532 38.5542 14.3396 42.5986C9.40126 44.8372 9.20344 45.944 2.75555 50.61C3.20524 50.6397 3.8479 50.853 4.73145 51.3059C13.3571 55.7273 21.7678 60.6364 30.2707 65.2933L108.077 107.906C111.74 95.631 111.164 82.7012 111.927 69.8307C112.81 54.9086 110.801 38 109.791 23.0595C109.408 17.3842 109.381 10.0282 108.453 3.24665C104.226 3.67113 100.362 4.7344 95.9688 6.68904C79.5921 13.9761 63.7027 22.3505 47.248 29.4766Z" fill="#3B4F3C"/>
<path d="M320.178 156.685C308.846 163.578 300.073 171.996 287.637 176.891C274.782 181.951 263.755 183.52 253.45 193.081C253.37 193.227 253.285 193.373 253.194 193.521C278.485 207.982 303.209 223.221 328.577 237.546C341.017 244.571 354.181 250.441 366.718 257.012C366.724 257.006 366.858 256.918 366.988 256.833C366.736 256.541 366.478 256.25 367.238 256.667C373.279 259.975 367.602 242.439 367.607 239.939C367.613 236.333 364.53 231.777 363.698 228.02C360.555 213.816 358.614 201.006 358.133 186.266C357.82 176.694 358.898 167.55 359.257 157.955C359.408 153.907 360.169 144.66 358.662 138.612C345.526 144.006 332.37 149.27 320.178 156.685Z" fill="#3B4F3C"/>
<path d="M367.238 256.667C373.279 259.975 367.602 242.439 367.607 239.939C367.613 236.333 364.53 231.777 363.698 228.02C360.555 213.816 358.614 201.006 358.133 186.266C357.82 176.694 358.898 167.55 359.257 157.955C359.408 153.907 360.169 144.66 358.662 138.612M367.238 256.667C366.478 256.25 366.736 256.541 366.988 256.833M367.238 256.667C367.233 256.673 367.112 256.752 366.988 256.833M366.718 257.012C362.826 261.604 353.86 264.632 348.692 268.039C338.557 274.721 328.785 280.285 317.911 285.531C304.01 292.237 290.256 299.412 276.699 306.761C268.299 311.314 258.613 313.184 249.979 317.437C243.323 320.716 236.285 322.907 229.532 325.961C209.314 335.105 189.557 343.976 168.881 352.076C152.283 358.579 136.064 366.862 118.659 371.002C100.484 375.325 82.5986 381.359 64.1787 384.8C61.1734 385.361 33.4727 393.916 33.0963 393.087M366.718 257.012C354.181 250.441 341.017 244.571 328.577 237.546C303.209 223.221 278.485 207.982 253.194 193.521M366.718 257.012C366.724 257.006 366.858 256.918 366.988 256.833M366.718 257.012C367.485 257.414 367.239 257.123 366.988 256.833M33.0963 393.087C28.8048 383.636 32.0687 367.836 31.0119 357.431C29.5954 343.486 31.1693 329.308 29.2318 315.367C25.2931 287.028 25.4476 259.151 18.5447 231.198C15.0112 216.89 17.1003 203.413 15.574 189.058C14.2165 176.29 12.6366 164.47 13.303 151.491C14.2849 132.369 15.3417 113.074 11.6411 94.2069C10.0425 86.0563 8.95436 77.8529 7.20205 69.752C6.5621 66.7935 6.60996 59.731 4.88769 57.4726C3.67352 55.8804 0.272247 50.4461 2.75555 50.61M33.0963 393.087C35.0948 389.438 37.4224 385.261 38.022 381.076C39.4422 371.162 39.7025 361.042 41.2084 351.1C42.5371 342.329 42.1579 333.69 42.9963 324.879C44.0959 313.324 47.8973 302.709 50.7271 291.557C55.2099 273.891 62.8887 256.829 66.8487 239.164C69.6903 226.488 73.5408 213.384 77.5674 200.987C81.4171 189.136 86.4695 177.656 90.6853 165.932C96.789 148.958 106.289 125.875 108.077 107.906M33.0963 393.087C43.7031 383.096 67.8896 369.911 78.8585 360.38C92.4046 348.61 103.888 334.68 115.614 321.178C127.669 307.297 138.563 294.617 153.288 283.301C165.87 273.631 177.315 262.509 189.97 252.934C202.76 243.257 213.166 232.984 223.998 221.113C228.402 216.286 231.792 211.487 237.022 207.537L237.024 207.535C241.36 204.26 250.178 198.434 253.194 193.521M30.2707 65.2933C21.7678 60.6364 13.3571 55.7273 4.73145 51.3059C3.8479 50.853 3.20524 50.6397 2.75555 50.61M30.2707 65.2933L131.29 120.62M30.2707 65.2933L108.077 107.906M131.29 120.62C167.126 140.246 200.265 164.313 236.011 183.891C241.777 187.048 247.5 190.265 253.194 193.521M131.29 120.62L108.077 107.906M108.077 107.906C111.74 95.631 111.164 82.7012 111.927 69.8307C112.81 54.9086 110.801 38 109.791 23.0595C109.408 17.3842 109.381 10.0282 108.453 3.24665M358.662 138.612C358.053 136.165 357.073 134.242 355.531 133.398C336.19 122.805 317.316 111.577 298.249 100.546C287.104 94.0978 277.209 86.0639 265.864 79.8508L126.157 3.33548C122.272 1.20756 117.859 3.05671 113.589 3.0263C111.788 3.01347 110.093 3.08201 108.453 3.24665M358.662 138.612C345.526 144.006 332.37 149.27 320.178 156.685C308.846 163.578 300.073 171.996 287.637 176.891C274.782 181.951 263.755 183.52 253.45 193.081C253.37 193.227 253.285 193.373 253.194 193.521M2.75555 50.61C9.20344 45.944 9.40126 44.8372 14.3396 42.5986C25.532 38.5542 36.3302 34.2048 47.248 29.4766C63.7027 22.3505 79.5921 13.9761 95.9688 6.68904C100.362 4.7344 104.226 3.67113 108.453 3.24665" stroke="black" stroke-width="3" stroke-linecap="round"/>
</svg>
